<svg width="50" height="50" viewBox="0 0 50 50" fill="none" xmlns="http://www.w3.org/2000/svg">
<g clip-path="url(#clip0_51923_10700)">
<rect width="50" height="50" rx="25" fill="white"/>
<path d="M50 0H0V50H50V0Z" fill="#ADB0D9"/>
<path d="M30.691 50H8.43896C8.51796 49.765 8.59897 49.531 8.67797 49.297C10.266 44.592 10.885 40.037 10.976 35.105C16.61 36.539 22.527 35.924 28.34 35.864C30.503 35.842 29.776 37.535 29.804 39.11C29.838 41.079 29.94 43.047 30.11 45.009C30.254 46.678 30.448 48.343 30.691 50Z" fill="#ADB0D9"/>
<path d="M30.691 50H8.43896C8.51796 49.765 8.59897 49.531 8.67797 49.297C10.266 44.592 10.885 40.037 10.976 35.105C16.61 36.539 22.527 35.924 28.34 35.864C30.503 35.842 29.776 37.535 29.804 39.11C29.838 41.079 29.94 43.047 30.11 45.009C30.254 46.678 30.448 48.343 30.691 50Z" fill="#E8AE8E"/>
<path d="M14.91 39.132C14.946 39.175 14.983 39.218 15.019 39.26C15.483 39.806 15.95 40.355 16.496 40.82C19.343 43.242 23.774 43.52 27.281 44.204C29.411 44.619 31.543 44.69 33.642 44.047C36.062 43.305 38.233 41.669 39.449 39.449C40.963 36.683 40.902 33.357 40.802 30.205C40.745 28.416 40.688 26.628 40.631 24.839C40.595 23.717 40.56 22.594 40.617 21.473C40.757 18.71 41.479 15.876 40.883 13.122C40.388 10.836 38.476 8.44999 36.342 7.48099C32.974 5.95199 28.939 5.54899 25.295 5.96099C22.658 6.25899 19.975 6.57499 17.551 7.65199C15.373 8.61999 12.55 9.855 11.387 12.016C9.91196 14.756 9.07297 17.924 8.71597 21.002C8.42097 23.546 8.47397 26.131 8.87697 28.661C9.25797 31.054 9.89497 33.231 11.477 35.092C12.62 36.439 13.765 37.785 14.91 39.132Z" fill="#F4C19F"/>
<path d="M30.733 31.355C30.435 31.355 30.19 31.117 30.183 30.818C30.176 30.514 30.416 30.262 30.72 30.255C32.091 30.223 32.638 29.826 33.569 28.97C32.505 26.593 31.879 24.071 31.706 21.467C31.686 21.164 31.915 20.902 32.218 20.882C32.519 20.863 32.783 21.091 32.803 21.394C32.973 23.958 33.64 26.543 34.732 28.869C34.834 29.085 34.784 29.342 34.609 29.505C33.335 30.691 32.585 31.312 30.745 31.354C30.742 31.355 30.738 31.355 30.733 31.355Z" fill="#1B1464"/>
<path d="M26.3184 26.0423C27.1203 25.9897 27.6986 24.8538 27.6101 23.5052C27.5215 22.1566 26.7997 21.106 25.9978 21.1586C25.196 21.2112 24.6177 22.3472 24.7062 23.6958C24.7947 25.0444 25.5165 26.095 26.3184 26.0423Z" fill="#1B1464"/>
<path d="M37.429 25.7302C38.2309 25.6776 38.8092 24.5417 38.7207 23.1931C38.6322 21.8445 37.9103 20.7939 37.1084 20.8465C36.3066 20.8991 35.7283 22.0351 35.8168 23.3837C35.9053 24.7323 36.6271 25.7829 37.429 25.7302Z" fill="#1B1464"/>
<path d="M39.9299 21.185C39.7739 21.185 39.6179 21.119 39.5099 20.99C37.5719 18.698 35.2939 18.743 35.2719 18.742C34.9649 18.753 34.7149 18.513 34.7049 18.209C34.6949 17.905 34.9339 17.652 35.2379 17.642C35.3519 17.639 38.0729 17.585 40.3509 20.279C40.5469 20.511 40.5179 20.858 40.2859 21.054C40.1809 21.142 40.0549 21.185 39.9299 21.185Z" fill="#1B1464"/>
<path d="M21.084 22.091C21.046 22.091 21.008 22.087 20.969 22.079C20.672 22.017 20.482 21.721 20.544 21.424C20.568 21.308 21.205 18.555 26.827 16.99C27.12 16.909 27.423 17.08 27.504 17.372C27.585 17.665 27.414 17.968 27.122 18.049C22.224 19.413 21.625 21.635 21.619 21.657C21.564 21.917 21.338 22.091 21.084 22.091Z" fill="#1B1464"/>
<path d="M30.847 37.013C30.412 37.013 29.96 36.949 29.506 36.819C28.449 36.516 27.503 35.913 26.669 35.381C26.413 35.218 26.338 34.877 26.501 34.622C26.664 34.366 27.004 34.291 27.26 34.454C28.068 34.97 28.904 35.504 29.807 35.762C30.744 36.03 31.642 35.942 32.271 35.521C32.523 35.352 32.865 35.42 33.034 35.672C33.203 35.924 33.135 36.266 32.883 36.435C32.313 36.817 31.607 37.013 30.847 37.013Z" fill="#1B1464"/>
<path d="M10.886 30.214C10.505 28.532 10.926 26.63 11.009 24.916C11.02 24.699 11.039 24.46 11.183 24.307C11.475 23.996 11.952 24.274 12.346 24.404C13.076 24.644 13.895 24.258 14.378 23.627C14.948 22.883 15.113 21.877 15.138 20.916C15.152 20.372 15.108 19.908 14.895 19.421C14.766 19.128 14.483 18.294 14.169 18.185C15.456 18.629 17.018 18.555 17.975 17.537C18.261 17.233 18.477 16.862 18.661 16.479C19.15 15.459 19.631 13.648 18.708 12.754C19.599 13.651 20.872 14.299 22.118 13.991C23.389 13.676 24.354 12.049 23.742 10.821C24.377 12.162 25.171 13.644 26.539 14.003C28.061 14.403 29.73 12.855 29.568 11.193C30.238 12.877 31.265 14.559 32.873 15.199C34.48 15.839 36.683 14.877 36.848 13.056C36.804 13.534 36.616 14.045 36.64 14.52C36.73 16.29 38.325 17.652 39.662 18.438C40.942 19.19 42.445 20.023 43.981 19.766C45.434 19.524 46.154 18.3 46.368 16.833C46.508 15.872 46.446 14.785 45.816 14.081C45.108 15.195 43.792 15.832 42.539 15.669C43.26 15.244 43.797 14.379 43.676 13.511C43.532 12.468 42.523 12.059 41.687 12.259C42.519 11.193 43.613 10.4 43.551 8.818C43.482 7.06299 42.068 5.27399 40.681 4.48599C39.958 4.07499 39.111 3.83699 38.313 4.03399C37.515 4.23099 36.798 4.94299 36.735 5.81399C36.526 4.10399 35.435 2.61499 34.073 1.68599C32.711 0.756995 31.099 0.326995 29.495 0.102995C28.469 -0.0410055 27.378 -0.0960055 26.448 0.386995C25.518 0.869995 24.835 2.05499 25.189 3.09099C23.992 1.21799 21.839 0.218995 19.717 0.0779945C17.595 -0.0630055 15.491 0.556995 13.507 1.37299C12.752 1.68399 11.966 2.05899 11.512 2.77299C10.531 4.31699 11.606 6.37199 12.727 7.80199C12.059 6.33399 10.26 5.996 8.72998 5.963C7.13498 5.92899 5.22298 6.236 4.55498 7.77999C3.82998 9.45399 5.08197 11.296 6.24897 12.655C4.52397 11.884 2.28797 13.376 2.18497 15.367C2.08197 17.358 4.14997 19.104 5.94497 18.539C5.50997 17.95 4.54098 18.18 4.15598 18.808C3.77098 19.435 3.82497 20.257 3.98497 20.987C4.24397 22.174 4.74697 23.3 5.44697 24.264C5.98597 25.006 7.17598 25.601 7.61598 24.788C6.34398 24.912 5.19098 25.931 4.84098 27.241C4.49098 28.55 4.96798 30.065 5.98798 30.884C6.44098 31.248 7.02598 31.483 7.57698 31.341C8.12798 31.199 8.58397 30.585 8.44497 29.999C7.89197 29.752 7.23297 30.222 7.04897 30.83C6.86497 31.438 7.03997 32.105 7.29697 32.682C7.75997 33.723 8.49597 34.623 9.39897 35.255C9.60397 35.398 9.83798 35.533 10.08 35.496C10.449 35.44 10.661 35.025 10.785 34.651C11.279 33.165 11.223 31.716 10.886 30.214Z" fill="#444DF2"/>
<path d="M11.608 20.195C10.969 19.44 10.076 18.937 8.85703 18.909C7.06603 18.868 5.35104 20.102 4.70304 21.773C3.66004 24.464 5.40404 27.748 7.75504 29.136C9.84304 30.368 12.294 29.65 12.903 27.213C13.173 26.132 13.067 24.998 12.958 23.889C12.828 22.553 12.428 21.165 11.608 20.195Z" fill="#F4C19F"/>
<path d="M7.68299 26.887C7.40099 26.887 7.16099 26.671 7.13599 26.385C7.05499 25.453 7.41999 24.893 7.73999 24.587C8.32299 24.03 9.17399 23.885 9.79099 23.862C9.69799 23.651 9.562 23.475 9.381 23.331C8.559 22.677 7.08099 22.879 7.06599 22.881C6.76599 22.928 6.48499 22.72 6.43999 22.42C6.39399 22.12 6.60099 21.839 6.90099 21.794C6.97999 21.782 8.85799 21.511 10.065 22.47C10.643 22.93 10.969 23.578 11.032 24.395C11.045 24.56 10.982 24.723 10.862 24.837C10.741 24.951 10.576 25.004 10.411 24.983C10.045 24.936 8.98599 24.916 8.49799 25.384C8.28399 25.59 8.19698 25.886 8.23198 26.29C8.25798 26.593 8.03398 26.859 7.73198 26.886C7.71498 26.886 7.69899 26.887 7.68299 26.887Z" fill="#EAAA7F"/>
<path d="M29.444 44.782C29.289 44.782 26.707 44.768 23.398 43.911C20.298 43.108 15.964 41.378 12.926 37.7C12.733 37.466 12.766 37.119 13 36.926C13.234 36.733 13.581 36.766 13.774 37C16.618 40.443 20.712 42.075 23.645 42.839C26.852 43.674 29.414 43.682 29.446 43.682C29.75 43.682 29.996 43.928 29.996 44.231C29.996 44.535 29.751 44.781 29.447 44.782C29.447 44.782 29.446 44.782 29.444 44.782Z" fill="#1B1464"/>
</g>
<defs>
<clipPath id="clip0_51923_10700">
<rect width="50" height="50" rx="25" fill="white"/>
</clipPath>
</defs>
</svg>
